<svg xmlns="http://www.w3.org/2000/svg" xmlns:xlink="http://www.w3.org/1999/xlink" width="250" height="250" viewBox="0, 0, 400,400"><g id="svgg"><path id="path0" d="M156.231 59.064 C 156.096 59.415,155.631 59.506,154.815 59.343 C 154.147 59.209,153.599 59.258,153.598 59.450 C 153.597 59.642,152.832 59.844,151.899 59.898 C 150.965 59.952,150.144 60.167,150.075 60.376 C 150.005 60.584,149.690 60.656,149.374 60.535 C 149.058 60.414,148.800 60.533,148.800 60.800 C 148.800 61.067,148.530 61.182,148.200 61.055 C 147.870 60.929,147.600 61.019,147.600 61.255 C 147.600 61.492,147.330 61.582,147.000 61.455 C 146.670 61.329,146.400 61.419,146.400 61.655 C 146.400 61.892,146.130 61.982,145.800 61.855 C 145.470 61.729,145.200 61.812,145.200 62.040 C 145.200 62.267,144.870 62.349,144.468 62.221 C 144.011 62.077,143.122 62.433,142.108 63.168 C 141.213 63.816,140.372 64.239,140.240 64.107 C 140.108 63.975,140.000 64.147,140.000 64.491 C 140.000 65.169,138.949 65.739,138.364 65.378 C 138.164 65.254,138.000 65.453,138.000 65.819 C 138.000 66.254,137.787 66.404,137.385 66.250 C 137.029 66.113,136.670 66.274,136.533 66.630 C 136.403 66.969,136.068 67.158,135.788 67.051 C 135.508 66.943,135.188 67.203,135.077 67.628 C 134.966 68.052,134.588 68.400,134.237 68.400 C 133.887 68.400,133.600 68.648,133.600 68.950 C 133.600 69.252,133.060 69.608,132.400 69.740 C 131.740 69.872,131.200 70.235,131.200 70.547 C 131.200 71.181,130.127 71.725,129.564 71.378 C 129.364 71.254,129.200 71.354,129.200 71.600 C 129.200 71.846,129.020 71.936,128.800 71.800 C 128.580 71.664,128.400 71.763,128.400 72.019 C 128.400 72.276,128.130 72.382,127.800 72.255 C 127.470 72.129,127.200 72.199,127.200 72.413 C 127.200 72.626,126.908 72.800,126.551 72.800 C 125.757 72.800,121.200 75.264,121.200 75.692 C 121.200 76.303,120.439 75.978,119.331 74.895 C 118.709 74.286,117.700 73.568,117.089 73.298 C 116.478 73.028,115.861 72.490,115.718 72.103 C 115.351 71.110,114.748 70.798,113.703 71.060 C 113.173 71.193,112.800 71.104,112.800 70.843 C 112.800 70.600,112.170 70.400,111.400 70.400 C 110.630 70.400,110.000 70.599,110.000 70.843 C 110.000 71.086,109.717 71.177,109.370 71.044 C 109.024 70.911,108.461 71.082,108.119 71.424 C 107.777 71.766,107.245 71.949,106.936 71.831 C 106.598 71.701,106.196 72.011,105.921 72.613 C 105.491 73.557,73.603 105.666,72.844 105.919 C 72.646 105.985,72.577 106.390,72.689 106.819 C 72.801 107.249,72.713 107.600,72.493 107.600 C 72.273 107.600,72.106 108.500,72.123 109.600 C 72.139 110.700,72.298 111.600,72.476 111.600 C 72.654 111.600,72.800 111.834,72.800 112.120 C 72.800 112.968,73.766 114.794,74.217 114.797 C 75.597 114.807,78.011 118.238,77.229 119.077 C 76.799 119.538,76.534 120.001,76.639 120.106 C 76.906 120.373,75.943 122.400,75.548 122.400 C 75.371 122.400,75.329 122.670,75.455 123.000 C 75.582 123.330,75.507 123.600,75.289 123.600 C 75.072 123.600,74.794 123.978,74.674 124.440 C 74.553 124.903,74.262 125.162,74.027 125.017 C 73.792 124.872,73.600 124.947,73.600 125.184 C 73.600 125.444,73.203 125.516,72.600 125.364 C 72.050 125.226,71.600 125.268,71.600 125.457 C 71.600 125.645,69.890 125.738,67.800 125.661 C 65.012 125.560,64.000 125.652,64.000 126.008 C 64.000 126.296,63.675 126.408,63.200 126.284 C 62.760 126.169,62.400 126.257,62.400 126.480 C 62.400 126.703,62.130 126.782,61.800 126.655 C 61.435 126.515,61.200 126.655,61.200 127.013 C 61.200 127.336,60.931 127.600,60.603 127.600 C 59.813 127.600,43.775 143.655,43.922 144.300 C 43.984 144.575,43.757 144.800,43.418 144.800 C 42.832 144.800,42.595 145.665,42.732 147.300 C 42.764 147.685,42.613 148.000,42.395 148.000 C 42.178 148.000,42.000 148.540,42.000 149.200 C 42.000 149.860,42.135 150.400,42.300 150.401 C 42.465 150.401,42.620 150.965,42.645 151.654 C 42.671 152.367,42.976 153.067,43.354 153.278 C 43.718 153.482,43.932 153.786,43.828 153.954 C 43.560 154.388,50.674 161.600,51.370 161.600 C 51.687 161.600,52.060 161.960,52.200 162.400 C 52.340 162.840,52.667 163.207,52.927 163.216 C 53.757 163.244,62.520 171.883,62.216 172.373 C 61.870 172.934,64.756 175.674,65.324 175.323 C 65.544 175.188,65.613 175.255,65.478 175.473 C 65.222 175.888,72.176 183.200,72.826 183.200 C 73.032 183.200,73.200 183.343,73.200 183.519 C 73.200 184.196,82.472 193.147,82.973 192.955 C 83.261 192.844,83.812 193.069,84.198 193.455 C 85.064 194.321,89.600 194.783,89.600 194.005 C 89.600 193.733,89.868 193.617,90.200 193.745 C 90.530 193.871,90.800 193.790,90.800 193.564 C 90.800 193.338,90.980 193.264,91.200 193.400 C 91.420 193.536,91.600 193.449,91.600 193.206 C 91.600 192.963,91.847 192.818,92.149 192.882 C 92.856 193.034,108.800 177.103,108.800 176.246 C 108.800 175.891,109.064 175.600,109.387 175.600 C 109.745 175.600,109.885 175.365,109.745 175.000 C 109.618 174.670,109.708 174.400,109.945 174.400 C 110.181 174.400,110.271 174.130,110.145 173.800 C 110.018 173.470,110.130 173.200,110.392 173.200 C 110.730 173.200,110.835 172.350,110.750 170.300 C 110.683 168.705,110.758 167.191,110.916 166.936 C 111.073 166.681,111.102 166.209,110.978 165.888 C 110.855 165.566,111.047 165.010,111.406 164.652 C 111.764 164.293,111.956 164.000,111.832 164.000 C 111.709 164.000,111.908 163.649,112.275 163.220 C 112.642 162.792,113.091 162.532,113.271 162.644 C 113.452 162.756,113.600 162.696,113.600 162.511 C 113.600 162.326,114.095 162.134,114.700 162.084 C 115.305 162.034,115.860 161.815,115.933 161.597 C 116.007 161.378,116.322 161.200,116.633 161.200 C 116.945 161.200,117.200 161.049,117.200 160.864 C 117.200 160.680,117.658 160.320,118.219 160.064 C 119.479 159.490,119.600 159.489,119.600 160.047 C 119.600 160.535,144.077 185.200,144.561 185.200 C 144.724 185.200,145.127 185.470,145.457 185.800 C 146.217 186.559,145.998 186.553,144.008 185.757 C 143.124 185.403,142.400 184.868,142.400 184.569 C 142.400 184.250,142.152 184.120,141.800 184.255 C 141.400 184.409,141.198 184.238,141.194 183.743 C 141.189 183.169,141.109 183.124,140.841 183.547 C 140.559 183.993,140.351 183.951,139.722 183.322 C 139.297 182.897,138.736 182.621,138.475 182.708 C 138.214 182.795,138.000 182.661,138.000 182.410 C 138.000 182.158,137.855 182.043,137.677 182.152 C 137.499 182.262,137.027 181.916,136.627 181.384 C 136.227 180.851,135.746 180.510,135.558 180.626 C 135.115 180.900,133.582 180.082,132.741 179.123 C 132.379 178.710,131.929 178.417,131.741 178.471 C 131.104 178.656,129.576 177.562,129.851 177.118 C 130.015 176.852,129.940 176.790,129.662 176.962 C 129.408 177.119,129.200 177.062,129.200 176.836 C 129.200 176.610,128.948 176.522,128.641 176.640 C 128.333 176.758,127.722 176.468,127.283 175.996 C 126.843 175.525,126.012 175.087,125.436 175.024 C 124.860 174.960,124.049 174.518,123.635 174.041 C 123.221 173.563,122.729 173.210,122.541 173.256 C 122.065 173.373,120.000 172.335,120.000 171.979 C 120.000 171.818,119.550 171.574,119.000 171.436 C 118.450 171.298,118.000 170.998,118.000 170.769 C 118.000 170.540,117.839 170.452,117.642 170.574 C 117.445 170.696,117.182 170.529,117.057 170.204 C 116.932 169.879,116.588 169.706,116.292 169.820 C 115.996 169.934,115.314 169.646,114.777 169.180 L 113.800 168.333 113.600 208.133 C 113.490 230.023,113.310 248.029,113.200 248.146 C 109.123 252.476,72.104 289.200,71.816 289.200 C 71.587 289.200,71.373 289.674,71.339 290.253 C 71.306 290.831,71.126 291.416,70.939 291.552 C 70.547 291.838,70.440 296.101,70.816 296.400 C 70.955 296.510,71.258 296.948,71.491 297.372 C 72.028 298.355,105.271 331.600,105.716 331.600 C 105.898 331.600,105.937 331.778,105.803 331.995 C 105.663 332.222,105.823 332.289,106.179 332.153 C 106.521 332.022,106.800 332.108,106.800 332.345 C 106.800 332.581,107.070 332.671,107.400 332.545 C 107.730 332.418,108.000 332.514,108.000 332.757 C 108.000 333.001,108.630 333.200,109.400 333.200 C 110.170 333.200,110.800 333.008,110.800 332.773 C 110.800 332.528,111.141 332.454,111.600 332.600 C 112.105 332.760,112.400 332.672,112.400 332.360 C 112.400 332.089,112.494 331.961,112.610 332.076 C 112.725 332.192,122.508 322.588,134.350 310.736 L 155.880 289.185 157.012 289.772 C 157.634 290.095,158.291 290.268,158.471 290.156 C 158.652 290.044,158.800 290.228,158.800 290.564 C 158.800 290.917,159.031 291.086,159.348 290.964 C 159.650 290.849,160.153 291.011,160.467 291.324 C 160.781 291.638,161.434 292.020,161.919 292.174 C 162.403 292.328,162.800 292.652,162.800 292.894 C 162.800 293.135,162.909 293.224,163.043 293.091 C 163.176 292.957,163.646 293.184,164.086 293.595 C 164.527 294.005,165.138 294.245,165.444 294.128 C 165.750 294.010,166.000 294.144,166.000 294.424 C 166.000 294.704,166.109 294.824,166.243 294.691 C 166.494 294.439,167.193 294.911,168.299 296.080 C 168.653 296.453,169.087 296.670,169.263 296.561 C 169.632 296.333,170.914 296.963,172.040 297.927 C 172.466 298.292,173.037 298.599,173.308 298.609 C 174.156 298.641,176.395 300.175,176.397 300.727 C 176.399 301.062,176.676 301.166,177.158 301.013 C 177.600 300.873,178.183 301.040,178.558 301.415 C 178.911 301.768,179.200 301.927,179.200 301.767 C 179.200 301.608,179.550 301.882,179.979 302.376 C 180.407 302.869,180.947 303.156,181.179 303.013 C 181.410 302.870,181.600 302.954,181.600 303.200 C 181.600 303.446,181.760 303.549,181.955 303.428 C 182.150 303.307,182.532 303.477,182.804 303.804 C 183.076 304.132,183.141 304.405,182.949 304.412 C 182.253 304.436,184.095 305.281,185.080 305.389 C 185.636 305.450,186.248 305.747,186.439 306.050 C 186.631 306.352,186.796 306.420,186.806 306.200 C 186.816 305.980,187.004 306.108,187.223 306.483 C 187.442 306.859,187.863 307.074,188.159 306.960 C 188.455 306.847,188.969 307.026,189.301 307.358 C 189.633 307.690,190.016 307.850,190.152 307.714 C 190.289 307.578,190.400 307.767,190.400 308.133 C 190.400 308.500,190.535 308.769,190.700 308.731 C 191.251 308.604,194.400 310.082,194.400 310.467 C 194.400 310.676,194.561 310.748,194.758 310.626 C 194.955 310.504,195.218 310.671,195.343 310.996 C 195.468 311.321,195.831 311.486,196.151 311.364 C 196.486 311.235,197.428 311.770,198.379 312.628 L 200.025 314.116 201.095 313.158 C 201.683 312.631,202.420 311.965,202.734 311.677 C 203.047 311.389,203.557 311.251,203.867 311.370 C 204.177 311.489,204.532 311.321,204.657 310.996 C 204.782 310.671,205.045 310.504,205.242 310.626 C 205.439 310.748,205.600 310.685,205.600 310.488 C 205.600 310.069,207.613 309.079,207.894 309.360 C 207.998 309.465,208.515 309.085,209.042 308.517 C 209.569 307.948,210.000 307.612,210.000 307.770 C 210.000 307.928,210.293 307.764,210.652 307.406 C 211.010 307.047,211.545 306.847,211.841 306.960 C 212.137 307.074,212.558 306.859,212.777 306.483 C 212.996 306.108,213.181 305.948,213.188 306.129 C 213.195 306.309,213.483 306.174,213.829 305.829 C 214.174 305.483,214.804 305.200,215.229 305.200 C 215.653 305.200,216.000 304.990,216.000 304.733 C 216.000 304.477,216.119 304.386,216.264 304.531 C 216.409 304.676,216.782 304.433,217.091 303.991 C 217.401 303.548,217.822 303.290,218.027 303.417 C 218.232 303.544,218.400 303.442,218.400 303.190 C 218.400 302.939,218.625 302.810,218.900 302.904 C 219.175 302.998,219.685 302.750,220.034 302.353 C 220.781 301.501,222.711 300.698,223.234 301.021 C 223.435 301.145,223.600 301.008,223.600 300.715 C 223.600 300.150,226.304 298.521,226.920 298.714 C 227.119 298.776,227.579 298.490,227.941 298.077 C 228.821 297.074,230.322 296.305,230.811 296.607 C 231.028 296.741,231.319 296.554,231.458 296.192 C 231.661 295.665,231.779 295.640,232.050 296.066 C 232.328 296.506,232.389 296.502,232.394 296.047 C 232.403 295.267,234.046 293.932,234.692 294.180 C 234.988 294.294,235.332 294.121,235.457 293.796 C 235.582 293.471,235.845 293.304,236.042 293.426 C 236.239 293.548,236.400 293.485,236.400 293.288 C 236.400 292.876,238.410 291.877,238.685 292.152 C 238.785 292.252,239.199 292.033,239.605 291.667 C 241.006 290.401,241.419 290.140,241.812 290.271 C 242.029 290.343,242.706 289.939,243.317 289.372 C 243.927 288.806,244.834 288.299,245.330 288.246 C 245.827 288.193,246.472 288.003,246.763 287.823 C 247.288 287.498,278.400 318.124,278.400 318.965 C 278.400 319.393,292.947 334.000,293.373 334.000 C 293.529 334.000,293.912 334.254,294.223 334.565 C 294.534 334.876,295.286 335.075,295.894 335.006 C 296.502 334.937,297.217 335.058,297.482 335.275 C 297.748 335.491,298.198 335.523,298.482 335.344 C 298.767 335.165,299.614 334.978,300.365 334.928 C 301.116 334.878,301.874 334.604,302.050 334.319 C 302.227 334.033,302.554 333.800,302.778 333.800 C 303.342 333.800,335.598 301.508,335.599 300.943 C 335.600 300.691,335.889 300.375,336.242 300.239 C 336.594 300.104,336.787 299.742,336.669 299.436 C 336.551 299.129,336.563 298.770,336.695 298.638 C 337.028 298.306,337.151 294.246,336.837 294.000 C 336.368 293.633,335.200 291.634,335.200 291.198 C 335.200 290.962,324.219 279.782,310.797 266.354 L 286.394 241.941 286.497 217.470 L 286.600 193.000 288.300 193.127 C 289.386 193.208,290.000 193.088,290.000 192.795 C 290.000 192.494,290.411 192.427,291.200 192.600 C 292.008 192.777,292.400 192.708,292.400 192.388 C 292.400 192.081,292.754 192.002,293.400 192.164 C 293.986 192.311,294.400 192.243,294.400 192.000 C 294.400 191.757,294.814 191.689,295.400 191.836 C 296.042 191.997,296.400 191.918,296.400 191.616 C 296.400 191.328,296.710 191.244,297.200 191.400 C 297.679 191.552,298.000 191.472,298.000 191.200 C 298.000 190.926,298.322 190.848,298.810 191.003 C 299.366 191.180,299.586 191.094,299.510 190.730 C 299.445 190.419,299.689 190.249,300.100 190.318 C 300.485 190.382,300.800 190.253,300.800 190.030 C 300.800 189.807,301.070 189.729,301.400 189.855 C 301.730 189.982,302.000 189.874,302.000 189.616 C 302.000 189.337,302.308 189.244,302.758 189.387 C 303.175 189.519,303.761 189.382,304.061 189.081 C 304.362 188.781,304.844 188.615,305.133 188.711 C 305.423 188.808,306.025 188.495,306.471 188.016 C 306.917 187.537,307.533 187.242,307.841 187.360 C 308.148 187.478,308.400 187.390,308.400 187.164 C 308.400 186.938,308.580 186.864,308.800 187.000 C 309.020 187.136,309.200 187.046,309.200 186.800 C 309.200 186.554,309.380 186.464,309.600 186.600 C 309.820 186.736,310.000 186.698,310.000 186.515 C 310.000 186.111,312.821 184.558,313.289 184.704 C 313.473 184.761,313.726 184.537,313.853 184.206 C 313.980 183.875,314.245 183.704,314.442 183.826 C 314.639 183.948,314.800 183.837,314.800 183.581 C 314.800 183.324,315.070 183.218,315.400 183.345 C 315.770 183.487,316.000 183.343,316.000 182.970 C 316.000 182.616,316.290 182.414,316.700 182.482 C 317.091 182.548,317.356 182.379,317.300 182.100 C 317.245 181.825,317.476 181.600,317.813 181.600 C 318.149 181.600,318.529 181.330,318.655 181.000 C 318.782 180.670,319.226 180.400,319.643 180.400 C 320.059 180.400,320.400 180.130,320.400 179.800 C 320.400 179.261,320.871 179.024,321.692 179.150 C 321.853 179.175,322.296 178.721,322.675 178.141 C 323.055 177.562,323.840 176.798,324.419 176.444 C 325.976 175.493,328.465 173.228,328.558 172.678 C 328.725 171.686,329.649 170.400,330.195 170.400 C 330.507 170.400,331.061 169.770,331.427 169.000 C 331.792 168.230,332.335 167.600,332.633 167.600 C 332.949 167.600,333.079 167.351,332.946 167.003 C 332.815 166.663,332.992 166.301,333.358 166.161 C 333.711 166.025,334.000 165.664,334.000 165.357 C 334.000 165.051,334.289 164.800,334.643 164.800 C 335.033 164.800,335.200 164.577,335.068 164.233 C 334.948 163.921,335.111 163.566,335.429 163.444 C 335.747 163.322,335.977 163.082,335.940 162.911 C 335.806 162.289,336.499 161.200,337.030 161.200 C 337.350 161.200,337.480 160.952,337.345 160.600 C 337.218 160.270,337.324 160.000,337.581 160.000 C 337.837 160.000,337.936 159.820,337.800 159.600 C 337.664 159.380,337.754 159.200,338.000 159.200 C 338.246 159.200,338.336 159.020,338.200 158.800 C 338.064 158.580,338.115 158.400,338.313 158.400 C 338.807 158.400,340.848 154.582,340.526 154.259 C 340.383 154.117,340.471 154.000,340.721 154.000 C 340.971 154.000,341.080 153.753,340.964 153.452 C 340.849 153.150,341.004 152.653,341.309 152.348 C 341.614 152.043,341.790 151.569,341.699 151.296 C 341.608 151.023,341.694 150.800,341.890 150.800 C 342.086 150.800,342.246 149.900,342.246 148.800 C 342.246 147.700,342.089 146.800,341.896 146.800 C 341.704 146.800,341.661 146.439,341.801 145.998 C 341.970 145.465,341.845 145.115,341.428 144.955 C 341.082 144.823,340.800 144.464,340.800 144.157 C 340.800 143.851,340.513 143.600,340.163 143.600 C 339.812 143.600,339.434 143.252,339.323 142.828 C 339.203 142.368,338.894 142.143,338.561 142.270 C 338.252 142.389,338.000 142.276,338.000 142.019 C 338.000 141.763,337.820 141.664,337.600 141.800 C 337.380 141.936,337.200 141.837,337.200 141.581 C 337.200 141.324,336.930 141.218,336.600 141.345 C 336.235 141.485,336.000 141.345,336.000 140.987 C 336.000 140.552,335.507 140.402,334.100 140.406 C 332.726 140.411,332.366 140.520,332.800 140.800 C 333.268 141.102,333.157 141.189,332.300 141.194 C 331.695 141.197,331.200 141.363,331.200 141.563 C 331.200 141.762,330.840 141.831,330.400 141.716 C 329.922 141.591,329.600 141.704,329.600 141.996 C 329.600 142.265,329.336 142.384,329.013 142.260 C 328.690 142.136,328.330 142.190,328.212 142.380 C 328.095 142.570,327.639 142.631,327.200 142.516 C 326.733 142.394,326.400 142.504,326.400 142.780 C 326.400 143.072,326.093 143.156,325.600 143.000 C 325.121 142.848,324.800 142.928,324.800 143.200 C 324.800 143.472,324.479 143.552,324.000 143.400 C 323.477 143.234,323.198 143.329,323.194 143.673 C 323.189 144.107,323.128 144.107,322.852 143.670 C 322.579 143.240,322.398 143.259,321.888 143.769 C 321.542 144.115,320.976 144.289,320.630 144.156 C 320.277 144.021,320.000 144.121,320.000 144.384 C 320.000 144.672,319.690 144.756,319.200 144.600 C 318.721 144.448,318.400 144.528,318.400 144.800 C 318.400 145.072,318.079 145.152,317.600 145.000 C 317.006 144.811,316.800 144.928,316.800 145.453 C 316.800 146.003,316.693 146.053,316.320 145.680 C 315.612 144.972,314.780 145.083,315.073 145.846 C 315.270 146.360,315.145 146.436,314.461 146.219 C 313.982 146.067,313.600 146.119,313.600 146.336 C 313.600 146.550,313.240 146.631,312.800 146.516 C 312.333 146.394,312.000 146.504,312.000 146.780 C 312.000 147.072,311.693 147.156,311.200 147.000 C 310.710 146.844,310.400 146.928,310.400 147.216 C 310.400 147.485,310.123 147.579,309.749 147.436 C 309.391 147.299,308.859 147.385,308.567 147.628 C 308.274 147.870,307.847 147.953,307.618 147.811 C 307.388 147.669,307.200 147.763,307.200 148.020 C 307.200 148.322,306.836 148.395,306.166 148.227 C 305.475 148.054,305.221 148.111,305.400 148.400 C 305.579 148.689,305.325 148.746,304.634 148.573 C 303.961 148.404,303.600 148.478,303.600 148.784 C 303.600 149.072,303.290 149.156,302.800 149.000 C 302.321 148.848,302.000 148.928,302.000 149.200 C 302.000 149.462,301.682 149.553,301.247 149.415 C 300.759 149.260,300.406 149.407,300.243 149.833 C 300.049 150.337,299.864 150.385,299.446 150.038 C 299.146 149.790,298.652 149.682,298.347 149.799 C 297.498 150.125,276.960 129.316,276.701 127.868 C 276.567 127.117,276.688 126.664,277.061 126.521 C 277.403 126.390,277.530 126.010,277.385 125.553 C 277.254 125.139,277.321 124.800,277.536 124.800 C 277.750 124.800,277.831 124.440,277.716 124.000 C 277.594 123.533,277.704 123.200,277.980 123.200 C 278.272 123.200,278.356 122.893,278.200 122.400 C 278.048 121.921,278.128 121.600,278.400 121.600 C 278.672 121.600,278.752 121.279,278.600 120.800 C 278.458 120.351,278.528 120.000,278.760 120.000 C 278.988 120.000,279.078 119.748,278.960 119.440 C 278.842 119.133,278.945 118.758,279.189 118.607 C 279.433 118.456,279.523 117.988,279.389 117.566 C 279.247 117.119,279.335 116.800,279.600 116.800 C 279.872 116.800,279.952 116.479,279.800 116.000 C 279.658 115.551,279.728 115.200,279.960 115.200 C 280.188 115.200,280.278 114.948,280.160 114.640 C 280.042 114.333,280.145 113.958,280.389 113.807 C 280.633 113.656,280.723 113.188,280.589 112.766 C 280.456 112.345,280.522 112.000,280.738 112.000 C 280.953 112.000,281.251 111.280,281.400 110.400 C 281.549 109.520,281.854 108.800,282.079 108.800 C 282.314 108.800,282.381 108.377,282.236 107.800 C 282.095 107.239,282.158 106.800,282.380 106.800 C 282.597 106.800,282.678 106.548,282.560 106.240 C 282.442 105.933,282.521 105.573,282.735 105.440 C 282.950 105.308,283.031 104.839,282.916 104.400 C 282.794 103.933,282.904 103.600,283.180 103.600 C 283.472 103.600,283.556 103.293,283.400 102.800 C 283.248 102.321,283.328 102.000,283.600 102.000 C 283.872 102.000,283.952 101.679,283.800 101.200 C 283.644 100.707,283.728 100.400,284.020 100.400 C 284.297 100.400,284.406 100.067,284.283 99.595 C 284.048 98.696,285.304 97.760,286.500 97.943 C 286.885 98.002,287.200 97.840,287.200 97.582 C 287.200 97.325,287.464 97.216,287.787 97.340 C 288.110 97.464,288.483 97.390,288.615 97.176 C 288.747 96.962,289.031 96.895,289.245 97.028 C 289.460 97.160,289.874 97.070,290.167 96.828 C 290.459 96.585,290.991 96.499,291.349 96.636 C 291.723 96.779,292.000 96.685,292.000 96.416 C 292.000 96.128,292.310 96.044,292.800 96.200 C 293.279 96.352,293.600 96.272,293.600 96.000 C 293.600 95.728,293.921 95.648,294.400 95.800 C 294.859 95.946,295.200 95.872,295.200 95.627 C 295.200 95.392,295.560 95.200,296.000 95.200 C 296.440 95.200,296.800 95.037,296.800 94.837 C 296.800 94.638,297.160 94.569,297.600 94.684 C 298.067 94.806,298.400 94.696,298.400 94.420 C 298.400 94.128,298.707 94.044,299.200 94.200 C 299.640 94.340,300.000 94.279,300.000 94.064 C 300.000 93.850,300.360 93.769,300.800 93.884 C 301.267 94.006,301.600 93.896,301.600 93.620 C 301.600 93.328,301.907 93.244,302.400 93.400 C 302.879 93.552,303.200 93.472,303.200 93.200 C 303.200 92.928,303.521 92.848,304.000 93.000 C 304.440 93.140,304.800 93.079,304.800 92.864 C 304.800 92.650,305.160 92.569,305.600 92.684 C 306.067 92.806,306.400 92.696,306.400 92.420 C 306.400 92.128,306.707 92.044,307.200 92.200 C 307.679 92.352,308.000 92.272,308.000 92.000 C 308.000 91.728,308.321 91.648,308.800 91.800 C 309.293 91.956,309.600 91.872,309.600 91.580 C 309.600 91.304,309.933 91.194,310.400 91.316 C 310.840 91.431,311.200 91.359,311.200 91.155 C 311.200 90.951,311.657 90.899,312.216 91.040 C 312.957 91.226,313.200 91.147,313.116 90.747 C 313.039 90.386,313.306 90.242,313.900 90.325 C 314.395 90.394,314.800 90.288,314.800 90.090 C 314.800 89.892,315.474 89.704,316.297 89.673 C 317.121 89.642,317.856 89.432,317.931 89.206 C 318.007 88.980,318.234 88.898,318.437 89.023 C 318.640 89.148,319.098 88.959,319.455 88.602 C 319.811 88.246,320.332 88.042,320.612 88.149 C 320.892 88.257,321.211 87.999,321.322 87.577 C 321.432 87.155,321.965 86.641,322.507 86.435 C 323.597 86.021,324.097 85.118,323.745 84.200 C 323.618 83.870,323.679 83.600,323.880 83.600 C 324.082 83.600,324.246 82.700,324.246 81.600 C 324.246 80.500,324.082 79.600,323.880 79.600 C 323.679 79.600,323.618 79.330,323.745 79.000 C 323.871 78.670,323.790 78.400,323.564 78.400 C 323.338 78.400,323.264 78.220,323.400 78.000 C 323.536 77.780,323.427 77.600,323.157 77.600 C 322.887 77.600,322.788 77.478,322.937 77.330 C 323.371 76.895,321.573 75.236,320.934 75.481 C 320.566 75.622,320.270 75.390,320.129 74.852 C 320.002 74.363,319.586 74.000,319.153 74.000 C 318.739 74.000,318.400 73.814,318.400 73.587 C 318.400 73.360,318.084 73.045,317.697 72.887 C 316.094 72.233,314.400 70.991,314.400 70.471 C 314.400 70.161,314.154 70.009,313.846 70.127 C 313.245 70.358,312.019 69.647,310.324 68.087 C 309.692 67.505,308.990 67.195,308.624 67.335 C 308.281 67.467,308.000 67.390,308.000 67.164 C 308.000 66.938,307.833 66.856,307.630 66.981 C 307.159 67.273,305.200 66.395,305.200 65.893 C 305.200 65.685,304.943 65.613,304.629 65.733 C 304.315 65.854,303.840 65.689,303.573 65.367 C 303.297 65.035,302.766 64.884,302.344 65.018 C 301.935 65.148,301.600 65.067,301.600 64.840 C 301.600 64.612,301.330 64.529,301.000 64.655 C 300.670 64.782,300.400 64.667,300.400 64.400 C 300.400 64.127,300.130 64.018,299.785 64.150 C 299.432 64.286,299.071 64.129,298.937 63.781 C 298.792 63.401,298.425 63.265,297.953 63.415 C 297.539 63.546,297.200 63.481,297.200 63.270 C 297.200 63.058,296.921 62.778,296.579 62.647 C 296.223 62.511,296.063 62.578,296.203 62.805 C 296.337 63.022,296.257 63.200,296.024 63.200 C 295.791 63.200,295.600 63.000,295.600 62.757 C 295.600 62.483,295.216 62.410,294.600 62.564 C 293.976 62.721,293.600 62.646,293.600 62.364 C 293.600 62.083,293.224 62.008,292.600 62.164 C 291.968 62.323,291.600 62.246,291.600 61.955 C 291.600 61.653,291.120 61.573,290.200 61.723 C 289.327 61.864,288.800 61.788,288.800 61.520 C 288.800 61.235,288.068 61.176,286.624 61.346 C 285.316 61.499,284.349 61.441,284.200 61.201 C 283.870 60.666,276.000 60.669,276.000 61.203 C 276.000 61.457,275.184 61.511,273.800 61.348 C 272.227 61.164,271.600 61.225,271.600 61.563 C 271.600 61.887,271.159 61.954,270.200 61.774 C 269.222 61.590,268.800 61.658,268.800 61.999 C 268.800 62.320,268.457 62.401,267.800 62.236 C 267.176 62.079,266.800 62.154,266.800 62.436 C 266.800 62.717,266.424 62.792,265.800 62.636 C 265.214 62.489,264.800 62.557,264.800 62.800 C 264.800 63.043,264.386 63.111,263.800 62.964 C 263.144 62.800,262.800 62.881,262.800 63.199 C 262.800 63.467,262.531 63.582,262.200 63.455 C 261.870 63.329,261.600 63.365,261.600 63.537 C 261.600 63.708,260.700 64.079,259.600 64.361 C 258.500 64.643,257.600 65.057,257.600 65.280 C 257.600 65.503,257.330 65.582,257.000 65.455 C 256.670 65.329,256.400 65.412,256.400 65.640 C 256.400 65.867,256.070 65.949,255.668 65.821 C 255.230 65.683,254.554 65.919,253.991 66.408 C 253.472 66.858,252.811 67.136,252.523 67.026 C 252.236 66.915,252.000 67.010,252.000 67.236 C 252.000 67.462,251.834 67.545,251.631 67.419 C 251.209 67.158,248.499 68.638,247.600 69.619 C 246.588 70.725,245.297 71.273,245.064 70.697 C 244.945 70.404,244.850 70.487,244.832 70.900 C 244.814 71.285,244.530 71.600,244.200 71.600 C 243.870 71.600,243.600 71.799,243.600 72.043 C 243.600 72.286,243.330 72.382,243.000 72.255 C 242.659 72.125,242.400 72.246,242.400 72.537 C 242.400 73.215,240.092 74.904,239.591 74.594 C 239.375 74.461,239.016 74.831,238.794 75.417 C 238.542 76.079,238.178 76.401,237.832 76.268 C 237.269 76.052,236.000 77.143,236.000 77.843 C 236.000 78.373,231.156 83.035,230.296 83.334 C 229.909 83.468,229.616 83.718,229.644 83.889 C 229.789 84.773,229.506 85.260,228.613 85.667 C 228.069 85.915,227.721 86.272,227.838 86.461 C 228.240 87.112,226.965 87.187,213.700 87.294 C 200.984 87.395,198.547 87.197,200.993 86.258 C 201.331 86.128,201.485 85.765,201.350 85.415 C 201.221 85.077,201.308 84.800,201.545 84.800 C 201.781 84.800,201.871 84.530,201.745 84.200 C 201.618 83.870,201.677 83.600,201.875 83.600 C 202.530 83.600,202.409 79.178,201.747 78.924 C 201.421 78.799,201.236 78.482,201.337 78.220 C 201.437 77.958,200.458 76.884,199.160 75.833 C 197.862 74.783,196.800 73.679,196.800 73.380 C 196.800 73.082,196.188 72.547,195.440 72.192 C 194.691 71.837,193.988 71.198,193.877 70.772 C 193.739 70.246,193.461 70.078,193.013 70.250 C 192.557 70.425,192.285 70.248,192.137 69.680 C 192.014 69.210,191.695 68.942,191.397 69.057 C 191.106 69.168,190.758 68.898,190.616 68.449 C 190.459 67.955,190.134 67.727,189.780 67.863 C 189.425 67.999,189.200 67.841,189.200 67.455 C 189.200 67.059,188.977 66.911,188.600 67.055 C 188.223 67.200,188.000 67.051,188.000 66.655 C 188.000 66.259,187.777 66.111,187.400 66.255 C 187.060 66.386,186.800 66.265,186.800 65.976 C 186.800 65.696,186.685 65.582,186.544 65.722 C 186.404 65.863,185.749 65.523,185.088 64.968 C 184.428 64.412,183.643 64.051,183.344 64.166 C 183.035 64.285,182.800 64.117,182.800 63.778 C 182.800 63.092,181.077 62.319,180.255 62.634 C 179.952 62.751,179.453 62.596,179.148 62.291 C 178.843 61.986,178.369 61.810,178.096 61.901 C 177.823 61.992,177.600 61.852,177.600 61.591 C 177.600 61.329,177.330 61.218,177.000 61.345 C 176.670 61.471,176.400 61.381,176.400 61.145 C 176.400 60.908,176.136 60.816,175.813 60.940 C 175.490 61.064,175.124 61.001,175.000 60.800 C 174.876 60.599,174.510 60.536,174.187 60.660 C 173.864 60.784,173.600 60.665,173.600 60.396 C 173.600 60.104,173.278 59.991,172.800 60.116 C 172.361 60.231,171.895 60.154,171.767 59.946 C 171.638 59.738,171.188 59.677,170.766 59.811 C 170.316 59.953,170.000 59.865,170.000 59.597 C 170.000 59.326,169.504 59.192,168.784 59.267 C 168.115 59.337,167.440 59.213,167.284 58.991 C 166.833 58.349,156.479 58.417,156.231 59.064 M234.483 105.300 C 234.591 112.025,234.500 112.962,233.759 112.805 C 233.616 112.774,233.287 113.166,233.027 113.675 C 232.758 114.203,232.264 114.549,231.875 114.482 C 231.445 114.407,231.045 114.754,230.791 115.422 C 230.542 116.078,230.178 116.400,229.834 116.268 C 229.501 116.141,229.193 116.382,229.066 116.870 C 228.949 117.318,228.618 117.606,228.330 117.510 C 227.751 117.317,226.800 118.102,226.800 118.771 C 226.800 119.007,226.461 119.200,226.047 119.200 C 225.614 119.200,225.198 119.563,225.071 120.052 C 224.922 120.621,224.640 120.824,224.225 120.665 C 223.828 120.513,223.362 120.791,222.942 121.433 C 222.579 121.987,222.050 122.351,221.766 122.242 C 221.458 122.124,221.199 122.399,221.125 122.922 C 221.046 123.479,220.670 123.847,220.100 123.928 C 219.605 123.998,219.200 124.294,219.200 124.585 C 219.200 125.283,218.102 125.691,217.874 125.078 C 217.776 124.815,217.498 125.095,217.258 125.700 C 216.864 126.688,216.402 126.990,215.500 126.847 C 215.335 126.821,215.200 131.210,215.200 136.600 L 215.200 146.400 235.783 146.400 L 256.366 146.400 256.483 153.900 C 256.621 162.746,256.906 161.780,254.100 161.967 C 253.825 161.985,253.600 162.248,253.600 162.551 C 253.600 162.855,253.060 163.327,252.400 163.600 C 251.740 163.873,251.200 164.274,251.200 164.491 C 251.200 164.708,250.908 164.774,250.552 164.637 C 250.169 164.490,249.637 164.694,249.252 165.135 C 248.409 166.100,246.082 167.298,245.613 167.008 C 245.413 166.884,245.103 167.012,244.925 167.293 C 244.355 168.188,241.263 170.086,240.821 169.813 C 240.586 169.668,240.287 169.830,240.155 170.172 C 240.024 170.515,239.755 170.696,239.558 170.574 C 239.361 170.452,239.200 170.510,239.200 170.702 C 239.200 171.068,236.666 172.400,235.970 172.400 C 235.748 172.400,235.349 172.583,235.083 172.807 C 233.072 174.503,232.584 174.803,232.123 174.626 C 231.399 174.348,230.400 174.784,230.400 175.379 C 230.400 176.571,228.264 176.903,221.100 176.824 L 214.000 176.746 214.000 218.507 C 214.000 255.360,214.070 260.267,214.600 260.267 C 214.930 260.267,215.200 260.056,215.200 259.798 C 215.200 259.300,216.869 258.366,218.190 258.123 C 218.625 258.043,219.129 257.712,219.310 257.389 C 219.652 256.778,221.741 255.553,222.288 255.643 C 223.281 255.807,224.000 255.519,224.000 254.957 C 224.000 254.514,224.213 254.396,224.688 254.578 C 225.066 254.724,225.255 254.721,225.107 254.574 C 224.689 254.156,225.889 253.158,226.896 253.086 C 227.393 253.051,228.213 252.612,228.718 252.111 C 229.223 251.610,229.853 251.173,230.118 251.139 C 232.323 250.860,233.710 250.316,233.138 249.953 C 232.839 249.764,232.795 249.610,233.039 249.606 C 233.280 249.603,233.896 249.238,234.406 248.794 C 234.958 248.316,235.632 248.083,236.068 248.221 C 236.482 248.353,236.800 248.258,236.800 248.003 C 236.800 247.756,236.980 247.664,237.200 247.800 C 237.420 247.936,237.600 247.800,237.600 247.498 C 237.600 246.981,239.951 245.600,240.830 245.600 C 241.218 245.600,241.705 245.257,243.055 244.030 C 243.615 243.522,244.252 243.343,245.900 243.233 C 246.175 243.215,246.400 242.957,246.400 242.661 C 246.400 242.364,247.120 241.797,248.000 241.400 L 249.600 240.679 249.606 221.239 C 249.612 201.306,249.659 200.721,251.263 200.603 C 251.778 200.565,252.165 200.369,252.121 200.167 C 252.033 199.755,254.013 198.579,254.541 198.730 C 254.729 198.784,255.221 198.437,255.635 197.959 C 256.049 197.482,256.860 197.040,257.436 196.976 C 258.012 196.913,258.832 196.487,259.257 196.031 C 259.683 195.574,260.223 195.200,260.458 195.200 C 260.693 195.200,261.421 194.749,262.076 194.197 C 262.732 193.646,263.442 193.302,263.655 193.434 C 263.868 193.566,264.390 193.272,264.815 192.782 C 265.240 192.292,266.034 191.842,266.579 191.783 C 267.124 191.723,268.027 191.181,268.585 190.578 C 269.143 189.976,269.603 189.644,269.606 189.842 C 269.609 190.039,269.744 190.020,269.906 189.800 C 270.389 189.143,272.668 188.001,272.944 188.277 C 273.085 188.418,273.200 188.304,273.200 188.024 C 273.200 187.735,273.460 187.614,273.800 187.745 C 274.152 187.880,274.400 187.750,274.400 187.430 C 274.400 186.980,275.619 186.136,275.757 186.491 C 276.192 187.602,275.483 260.041,275.040 259.871 C 274.736 259.754,274.108 260.013,273.644 260.445 C 273.180 260.877,272.797 261.089,272.794 260.916 C 272.791 260.742,272.631 260.848,272.439 261.150 C 272.248 261.453,271.631 261.751,271.068 261.812 C 269.778 261.954,269.122 262.351,269.410 262.816 C 269.532 263.014,269.175 263.291,268.616 263.432 C 268.057 263.572,267.600 263.847,267.600 264.043 C 267.600 264.240,267.297 264.400,266.926 264.400 C 266.555 264.400,265.849 264.778,265.357 265.240 C 264.865 265.703,263.999 266.108,263.432 266.140 C 262.864 266.173,262.400 266.392,262.400 266.626 C 262.400 267.082,259.628 268.602,259.059 268.458 C 258.871 268.411,258.421 268.710,258.059 269.123 C 257.179 270.126,255.678 270.895,255.189 270.593 C 254.972 270.459,254.681 270.646,254.542 271.008 C 254.339 271.535,254.221 271.560,253.950 271.134 C 253.691 270.725,253.611 270.764,253.606 271.300 C 253.600 271.967,253.447 272.068,252.300 272.160 C 252.025 272.182,251.595 272.380,251.345 272.600 C 249.850 273.913,249.241 274.308,249.034 274.100 C 248.905 273.972,248.800 274.096,248.800 274.376 C 248.800 274.656,248.550 274.790,248.244 274.672 C 247.938 274.555,247.342 274.781,246.919 275.175 C 245.803 276.214,244.443 276.874,243.992 276.595 C 243.776 276.462,243.600 276.554,243.600 276.800 C 243.600 277.046,243.392 277.119,243.138 276.962 C 242.865 276.793,242.784 276.851,242.941 277.104 C 243.220 277.555,240.517 279.450,240.137 279.070 C 240.015 278.948,239.476 279.288,238.939 279.824 C 238.403 280.361,237.747 280.827,237.482 280.861 C 237.217 280.894,236.820 280.964,236.600 281.015 C 236.380 281.066,235.964 281.128,235.676 281.154 C 235.388 281.179,235.264 281.380,235.400 281.600 C 235.536 281.820,235.484 282.000,235.285 282.000 C 235.085 282.000,234.500 282.366,233.985 282.813 C 233.469 283.261,232.804 283.534,232.508 283.420 C 232.212 283.306,231.861 283.496,231.729 283.840 C 231.535 284.346,231.423 284.364,231.150 283.934 C 230.884 283.513,230.811 283.535,230.806 284.036 C 230.800 284.701,228.974 285.755,228.420 285.413 C 228.245 285.304,227.773 285.651,227.373 286.184 C 226.973 286.716,226.501 287.062,226.323 286.952 C 226.145 286.843,226.000 286.963,226.000 287.219 C 226.000 287.476,225.725 287.580,225.389 287.451 C 225.045 287.319,224.489 287.553,224.118 287.988 C 223.754 288.412,223.309 288.668,223.129 288.556 C 222.948 288.444,222.800 288.554,222.800 288.800 C 222.800 289.046,222.620 289.136,222.400 289.000 C 222.180 288.864,222.000 288.943,222.000 289.176 C 222.000 289.409,221.634 289.600,221.187 289.600 C 220.741 289.600,220.267 289.880,220.136 290.223 C 220.004 290.566,219.641 290.748,219.328 290.628 C 219.012 290.507,218.867 290.586,219.003 290.805 C 219.137 291.022,218.967 291.200,218.624 291.200 C 218.281 291.200,218.000 291.391,218.000 291.624 C 218.000 291.857,217.810 291.930,217.579 291.787 C 217.347 291.644,216.852 291.875,216.479 292.300 C 215.578 293.328,214.060 294.109,213.432 293.868 C 213.155 293.761,212.674 293.835,212.364 294.031 C 211.888 294.332,211.893 294.391,212.400 294.410 C 212.730 294.422,212.501 294.703,211.891 295.034 C 211.280 295.365,210.601 295.524,210.381 295.388 C 210.160 295.252,210.030 295.379,210.090 295.670 C 210.151 295.962,209.956 296.149,209.659 296.086 C 209.361 296.024,208.821 296.310,208.459 296.723 C 207.579 297.726,206.078 298.495,205.589 298.193 C 205.372 298.059,205.087 298.230,204.955 298.572 C 204.824 298.915,204.555 299.096,204.358 298.974 C 204.161 298.852,204.000 298.901,204.000 299.082 C 204.000 299.263,203.100 299.838,202.000 300.361 L 200.000 301.310 198.000 300.361 C 196.900 299.838,196.000 299.263,196.000 299.082 C 196.000 298.901,195.839 298.852,195.642 298.974 C 195.445 299.096,195.176 298.915,195.045 298.572 C 194.913 298.230,194.628 298.059,194.411 298.193 C 193.922 298.495,192.421 297.726,191.541 296.723 C 191.179 296.310,190.639 296.024,190.341 296.086 C 190.044 296.149,189.849 295.962,189.910 295.670 C 189.970 295.379,189.840 295.252,189.619 295.388 C 189.163 295.670,187.000 294.643,187.000 294.144 C 187.000 293.821,186.883 293.783,185.518 293.661 C 185.143 293.627,184.377 293.140,183.815 292.578 C 183.253 292.017,182.615 291.667,182.397 291.802 C 182.178 291.937,182.000 291.857,182.000 291.624 C 182.000 291.391,181.775 291.245,181.500 291.300 C 181.225 291.355,181.038 291.196,181.084 290.947 C 181.131 290.698,180.861 290.518,180.484 290.547 C 180.108 290.576,179.845 290.375,179.900 290.100 C 179.955 289.825,179.865 289.585,179.700 289.567 C 179.535 289.548,178.978 289.487,178.463 289.431 C 177.948 289.374,177.366 289.074,177.169 288.764 C 176.973 288.454,176.809 288.342,176.806 288.516 C 176.803 288.689,176.420 288.477,175.956 288.045 C 175.492 287.613,174.862 287.355,174.556 287.472 C 174.250 287.590,174.000 287.476,174.000 287.219 C 174.000 286.963,173.855 286.843,173.677 286.952 C 173.499 287.062,173.027 286.716,172.627 286.184 C 172.227 285.651,171.755 285.304,171.580 285.413 C 171.026 285.755,169.200 284.701,169.194 284.036 C 169.189 283.535,169.116 283.513,168.850 283.934 C 168.577 284.364,168.465 284.346,168.271 283.840 C 168.139 283.496,167.794 283.304,167.504 283.415 C 166.893 283.650,164.283 281.850,164.672 281.461 C 164.816 281.318,164.531 281.200,164.040 281.200 C 162.916 281.200,161.552 280.488,160.889 279.553 C 160.608 279.157,160.113 278.935,159.789 279.060 C 159.465 279.184,159.200 279.086,159.200 278.843 C 159.200 278.599,159.065 278.438,158.900 278.485 C 158.291 278.657,156.786 277.545,157.051 277.118 C 157.215 276.852,157.140 276.790,156.862 276.962 C 156.608 277.119,156.400 277.062,156.400 276.836 C 156.400 276.610,156.153 276.520,155.852 276.636 C 155.550 276.751,155.010 276.553,154.652 276.194 C 154.293 275.836,154.000 275.653,154.000 275.787 C 154.000 275.921,153.620 275.677,153.156 275.245 C 152.692 274.813,152.096 274.542,151.833 274.643 C 151.569 274.744,150.974 274.506,150.510 274.113 C 150.047 273.721,149.329 273.118,148.914 272.773 C 148.500 272.428,147.966 272.211,147.727 272.291 C 147.488 272.371,147.002 272.145,146.646 271.789 C 146.291 271.434,145.995 271.291,145.988 271.471 C 145.981 271.652,145.796 271.492,145.577 271.117 C 145.358 270.741,144.937 270.526,144.641 270.640 C 144.345 270.753,143.810 270.553,143.452 270.194 C 143.093 269.836,142.800 269.673,142.800 269.833 C 142.800 269.992,142.459 269.729,142.041 269.247 C 141.624 268.766,141.129 268.423,140.941 268.486 C 140.443 268.651,137.600 266.898,137.600 266.426 C 137.600 266.206,137.330 266.129,137.000 266.255 C 136.670 266.382,136.400 266.276,136.400 266.019 C 136.400 265.763,136.235 265.655,136.034 265.779 C 135.832 265.904,135.105 265.532,134.417 264.953 C 133.729 264.374,133.057 264.010,132.924 264.143 C 132.790 264.276,132.348 264.001,131.941 263.532 C 131.533 263.062,131.200 262.830,131.200 263.015 C 131.200 263.201,130.969 263.037,130.687 262.651 C 130.404 262.265,129.664 261.893,129.041 261.824 C 128.418 261.756,127.752 261.453,127.561 261.150 C 127.369 260.848,127.209 260.742,127.206 260.916 C 127.203 261.089,126.820 260.877,126.356 260.445 C 125.892 260.013,125.264 259.754,124.960 259.871 C 124.517 260.041,123.808 187.602,124.243 186.491 C 124.381 186.136,125.600 186.980,125.600 187.430 C 125.600 187.750,125.848 187.880,126.200 187.745 C 126.530 187.618,126.800 187.714,126.800 187.957 C 126.800 188.201,126.935 188.357,127.100 188.305 C 127.636 188.135,130.000 189.285,130.000 189.715 C 130.000 189.945,130.117 190.017,130.260 189.874 C 130.402 189.731,130.923 190.085,131.417 190.660 C 131.912 191.235,132.740 191.749,133.258 191.802 C 134.773 191.957,134.800 191.971,134.800 192.624 C 134.800 192.967,134.968 193.144,135.172 193.017 C 135.377 192.891,135.660 192.973,135.800 193.200 C 135.940 193.427,136.237 193.500,136.460 193.363 C 136.683 193.225,137.345 193.562,137.933 194.111 C 138.520 194.661,139.405 195.232,139.900 195.382 C 140.395 195.532,140.800 195.832,140.800 196.051 C 140.800 196.269,140.961 196.348,141.158 196.226 C 141.355 196.104,141.618 196.271,141.743 196.596 C 141.868 196.921,142.227 197.088,142.541 196.967 C 142.855 196.847,143.576 197.212,144.142 197.779 C 144.709 198.345,145.314 198.769,145.486 198.721 C 145.996 198.577,147.964 199.767,147.879 200.167 C 147.835 200.369,148.222 200.565,148.737 200.603 C 150.340 200.721,150.388 201.309,150.394 221.106 L 150.400 240.412 151.700 241.177 C 152.415 241.598,153.298 242.240,153.663 242.603 C 154.028 242.965,154.813 243.316,155.409 243.381 C 156.004 243.447,156.648 243.747,156.839 244.050 C 157.031 244.352,157.191 244.437,157.194 244.239 C 157.197 244.040,157.573 244.308,158.029 244.834 C 158.485 245.359,159.070 245.792,159.329 245.795 C 160.345 245.806,162.400 246.928,162.400 247.472 C 162.400 247.788,162.580 247.936,162.800 247.800 C 163.020 247.664,163.200 247.763,163.200 248.019 C 163.200 248.289,163.479 248.378,163.862 248.231 C 164.260 248.079,165.138 248.403,166.062 249.043 C 167.513 250.048,168.190 250.780,167.100 250.165 C 166.731 249.956,166.715 250.008,167.039 250.361 C 167.281 250.624,168.001 250.899,168.639 250.974 C 169.278 251.048,169.927 251.129,170.082 251.154 C 170.237 251.179,170.812 251.648,171.360 252.196 C 171.907 252.744,172.601 253.098,172.901 252.983 C 173.201 252.867,173.869 253.139,174.385 253.587 C 174.900 254.034,175.475 254.400,175.661 254.400 C 175.848 254.400,176.000 254.651,176.000 254.957 C 176.000 255.576,177.075 256.124,177.624 255.785 C 178.089 255.498,180.270 256.639,180.690 257.389 C 180.871 257.712,181.375 258.043,181.810 258.123 C 182.917 258.326,184.800 259.270,184.800 259.621 C 184.800 259.783,185.070 260.018,185.400 260.145 C 185.931 260.348,186.000 255.565,186.000 218.561 L 186.000 176.747 179.199 176.874 C 175.459 176.943,172.399 176.871,172.399 176.713 C 172.400 176.554,172.153 176.520,171.852 176.636 C 171.550 176.751,171.031 176.574,170.699 176.242 C 170.367 175.910,169.984 175.750,169.848 175.886 C 169.711 176.022,169.600 175.833,169.600 175.467 C 169.600 175.100,169.375 174.773,169.100 174.739 C 168.825 174.706,168.420 174.636,168.200 174.585 C 167.980 174.534,167.528 174.472,167.196 174.446 C 166.864 174.421,166.107 173.950,165.513 173.400 C 164.920 172.850,164.247 172.400,164.017 172.400 C 163.788 172.400,163.600 172.209,163.600 171.976 C 163.600 171.743,163.432 171.656,163.227 171.783 C 162.733 172.089,160.000 170.770,160.000 170.226 C 160.000 169.992,159.570 169.775,159.045 169.745 C 158.146 169.693,155.558 168.156,155.267 167.500 C 155.193 167.335,154.869 167.200,154.547 167.200 C 153.691 167.200,151.506 166.003,150.721 165.104 C 150.348 164.676,149.865 164.436,149.649 164.570 C 149.292 164.791,147.056 163.542,145.632 162.326 C 145.320 162.060,144.735 161.817,144.332 161.788 C 143.332 161.714,143.387 162.244,143.517 153.900 L 143.634 146.400 164.224 146.400 L 184.814 146.400 184.707 136.500 C 184.606 127.165,184.558 126.607,183.869 126.725 C 183.411 126.803,183.060 126.552,182.930 126.052 C 182.814 125.608,182.491 125.344,182.202 125.455 C 181.917 125.564,181.439 125.307,181.142 124.884 C 180.844 124.461,180.195 123.987,179.700 123.830 C 179.205 123.674,178.800 123.288,178.800 122.973 C 178.800 122.658,178.551 122.400,178.246 122.400 C 177.941 122.400,177.401 121.956,177.045 121.413 C 176.635 120.787,176.171 120.513,175.775 120.665 C 175.360 120.824,175.078 120.621,174.929 120.052 C 174.807 119.583,174.410 119.200,174.048 119.200 C 173.686 119.200,173.210 118.795,172.991 118.300 C 172.747 117.748,172.312 117.448,171.865 117.525 C 171.404 117.604,171.059 117.348,170.922 116.825 C 170.804 116.371,170.389 116.000,170.000 116.000 C 169.611 116.000,169.196 115.629,169.078 115.175 C 168.943 114.660,168.596 114.397,168.153 114.475 C 167.732 114.549,167.253 114.224,166.973 113.675 C 166.713 113.166,166.384 112.774,166.241 112.805 C 165.500 112.962,165.409 112.025,165.517 105.300 L 165.635 98.000 200.000 98.000 L 234.365 98.000 234.483 105.300 " stroke="none" fill="#045ccc" fill-rule="evenodd"></path><path id="path1" d="M159.600 58.360 C 159.600 58.762,163.860 58.673,164.271 58.262 C 164.415 58.118,163.423 58.000,162.067 58.000 C 160.710 58.000,159.600 58.162,159.600 58.360 M92.238 85.666 C 85.401 92.522,80.165 97.924,80.603 97.669 C 81.697 97.034,105.490 73.210,105.035 73.204 C 104.835 73.202,99.076 78.810,92.238 85.666 M246.800 288.105 C 247.615 289.218,277.795 319.139,277.948 318.985 C 278.156 318.778,250.928 291.508,248.200 289.190 C 247.320 288.443,246.690 287.955,246.800 288.105 M155.361 290.309 C 154.900 290.689,153.737 291.900,152.777 293.000 L 151.031 295.000 152.790 293.400 C 155.256 291.157,155.335 291.079,155.949 290.298 C 156.641 289.418,156.438 289.422,155.361 290.309 " stroke="none" fill="#3881d8" fill-rule="evenodd"></path><path id="path2" d="M231.400 81.600 C 231.002 82.040,230.878 82.400,231.124 82.400 C 231.370 82.400,231.765 82.040,232.000 81.600 C 232.235 81.160,232.360 80.800,232.276 80.800 C 232.192 80.800,231.798 81.160,231.400 81.600 M77.200 100.800 C 75.445 102.560,74.146 104.000,74.314 104.000 C 74.481 104.000,76.050 102.560,77.800 100.800 C 79.550 99.040,80.849 97.600,80.686 97.600 C 80.524 97.600,78.955 99.040,77.200 100.800 M74.000 115.023 C 74.000 115.237,74.810 116.197,75.800 117.156 C 76.790 118.116,77.600 118.735,77.600 118.534 C 77.600 118.332,76.790 117.372,75.800 116.400 C 74.810 115.428,74.000 114.809,74.000 115.023 M112.800 207.400 C 112.800 233.400,112.936 246.800,113.200 246.800 C 113.464 246.800,113.600 233.400,113.600 207.400 C 113.600 181.400,113.464 168.000,113.200 168.000 C 112.936 168.000,112.800 181.400,112.800 207.400 M73.309 287.073 C 72.379 288.023,71.758 288.800,71.928 288.800 C 72.329 288.800,75.403 285.657,75.174 285.480 C 75.078 285.407,74.239 286.123,73.309 287.073 M151.000 294.400 C 149.472 295.940,148.359 297.200,148.528 297.200 C 148.896 297.200,150.086 296.060,152.391 293.500 C 154.881 290.734,154.201 291.175,151.000 294.400 M250.800 291.725 C 250.800 291.794,251.385 292.379,252.100 293.025 L 253.400 294.200 252.225 292.900 C 251.130 291.688,250.800 291.416,250.800 291.725 M336.800 296.576 C 336.800 297.139,336.942 297.600,337.115 297.600 C 337.569 297.600,337.619 296.059,337.175 295.784 C 336.969 295.657,336.800 296.013,336.800 296.576 M140.795 304.686 C 137.388 308.111,134.960 310.718,135.400 310.478 C 136.404 309.931,147.392 298.859,147.161 298.628 C 147.067 298.534,144.203 301.260,140.795 304.686 M129.528 316.006 C 126.861 318.649,124.760 320.893,124.859 320.992 C 124.958 321.092,127.278 318.929,130.014 316.186 C 132.750 313.444,134.851 311.200,134.683 311.200 C 134.515 311.200,132.196 313.363,129.528 316.006 M92.762 320.126 C 93.382 320.904,96.400 323.368,96.400 323.096 C 96.400 323.002,95.455 322.137,94.300 321.174 C 93.145 320.210,92.453 319.739,92.762 320.126 M119.389 326.233 C 116.743 328.965,114.676 331.200,114.795 331.200 C 115.171 331.200,124.569 321.636,124.380 321.446 C 124.280 321.347,122.034 323.501,119.389 326.233 M101.136 328.400 C 102.440 329.720,103.657 330.800,103.841 330.800 C 104.025 330.800,103.106 329.720,101.800 328.400 C 100.494 327.080,99.277 326.000,99.096 326.000 C 98.914 326.000,99.833 327.080,101.136 328.400 " stroke="none" fill="#1e74d4" fill-rule="evenodd"></path><path id="path3" d="M156.000 58.708 C 156.000 58.982,155.429 59.086,154.500 58.982 L 153.000 58.814 154.400 59.180 C 155.751 59.534,156.881 59.148,156.273 58.540 C 156.123 58.390,156.000 58.465,156.000 58.708 M306.000 66.395 C 306.000 66.671,306.941 67.200,307.433 67.200 C 307.979 67.200,307.466 66.458,306.800 66.284 C 306.360 66.169,306.000 66.219,306.000 66.395 M311.600 69.164 C 312.150 69.614,312.780 69.983,313.000 69.985 C 313.428 69.988,312.705 69.434,311.400 68.760 C 310.869 68.485,310.936 68.621,311.600 69.164 M246.629 69.809 C 246.205 70.129,245.951 70.485,246.065 70.598 C 246.179 70.712,246.688 70.444,247.197 70.003 C 248.255 69.085,247.794 68.927,246.629 69.809 M115.822 72.435 C 116.257 73.140,117.604 73.676,117.363 73.049 C 117.243 72.735,116.797 72.388,116.372 72.277 C 115.947 72.166,115.699 72.237,115.822 72.435 M198.400 75.156 C 199.390 76.047,200.366 76.781,200.570 76.788 C 201.184 76.808,199.339 75.050,197.924 74.268 C 196.741 73.615,196.791 73.709,198.400 75.156 M120.812 75.184 C 120.488 75.389,120.344 75.678,120.493 75.826 C 120.641 75.974,121.053 75.804,121.410 75.448 C 122.113 74.744,121.757 74.587,120.812 75.184 M233.044 80.600 C 231.614 82.030,230.575 83.200,230.734 83.200 C 230.893 83.200,232.183 82.030,233.600 80.600 C 235.017 79.170,236.057 78.000,235.911 78.000 C 235.764 78.000,234.474 79.170,233.044 80.600 M319.612 88.384 C 319.288 88.589,319.121 88.854,319.241 88.974 C 319.360 89.094,319.805 88.929,320.229 88.609 C 321.073 87.971,320.560 87.785,319.612 88.384 M75.983 116.500 C 76.964 117.545,77.819 118.400,77.883 118.400 C 78.184 118.400,77.866 118.041,76.100 116.383 L 74.200 114.600 75.983 116.500 M276.806 128.700 C 276.810 128.865,281.617 133.770,287.489 139.600 C 293.360 145.430,297.766 149.737,297.278 149.170 C 296.791 148.604,296.529 147.990,296.696 147.806 C 296.863 147.622,296.804 147.583,296.565 147.719 C 296.326 147.855,295.434 147.254,294.584 146.383 C 293.733 145.513,293.186 144.800,293.368 144.800 C 293.549 144.800,293.476 144.532,293.204 144.204 C 292.932 143.877,292.582 143.687,292.427 143.783 C 292.272 143.879,291.528 143.238,290.773 142.359 C 286.832 137.769,276.790 127.948,276.806 128.700 M336.087 162.009 C 335.619 162.759,335.641 162.781,336.391 162.313 C 336.836 162.035,337.200 161.671,337.200 161.504 C 337.200 160.926,336.591 161.203,336.087 162.009 M145.600 162.395 C 145.600 162.671,146.541 163.200,147.033 163.200 C 147.579 163.200,147.066 162.458,146.400 162.284 C 145.960 162.169,145.600 162.219,145.600 162.395 M55.400 165.835 C 56.940 167.310,58.151 168.684,58.090 168.888 C 58.030 169.092,58.176 169.138,58.416 168.990 C 58.708 168.810,58.611 168.448,58.126 167.899 C 56.767 166.362,53.522 163.400,53.060 163.277 C 52.807 163.209,53.860 164.360,55.400 165.835 M150.880 165.337 C 151.653 166.110,153.200 166.886,153.200 166.500 C 153.200 166.172,151.111 164.800,150.610 164.800 C 150.463 164.800,150.584 165.042,150.880 165.337 M247.900 165.503 C 246.589 166.316,246.412 167.036,247.692 166.351 C 248.744 165.788,249.799 164.795,249.329 164.811 C 249.148 164.816,248.505 165.128,247.900 165.503 M155.217 167.537 C 155.241 167.917,157.969 169.603,158.528 169.584 C 158.787 169.575,158.505 169.299,157.900 168.971 C 157.295 168.643,156.800 168.221,156.800 168.034 C 156.800 167.847,156.440 167.599,156.000 167.484 C 155.560 167.369,155.208 167.393,155.217 167.537 M242.100 168.888 C 241.605 169.127,241.200 169.481,241.200 169.675 C 241.200 170.086,242.638 169.385,243.001 168.798 C 243.293 168.325,243.260 168.329,242.100 168.888 M59.600 169.553 C 59.600 169.746,60.275 170.405,61.100 171.017 L 62.600 172.129 61.222 170.664 C 59.753 169.105,59.600 169.000,59.600 169.553 M239.100 170.229 C 237.954 170.850,237.552 171.747,238.600 171.345 C 238.930 171.218,239.200 170.943,239.200 170.734 C 239.200 170.524,239.361 170.452,239.558 170.574 C 239.755 170.696,240.019 170.526,240.146 170.198 C 240.419 169.485,240.473 169.484,239.100 170.229 M160.000 170.336 C 160.000 170.520,160.450 170.877,161.000 171.127 C 162.175 171.663,162.376 171.029,161.226 170.414 C 160.289 169.912,160.000 169.894,160.000 170.336 M329.037 171.400 C 328.676 171.950,328.537 172.400,328.727 172.400 C 328.916 172.400,329.277 171.950,329.527 171.400 C 329.778 170.850,329.917 170.400,329.837 170.400 C 329.757 170.400,329.397 170.850,329.037 171.400 M120.000 171.995 C 120.000 172.465,121.139 172.822,121.383 172.428 C 121.497 172.243,121.233 171.997,120.796 171.883 C 120.358 171.769,120.000 171.819,120.000 171.995 M165.709 173.600 C 166.269 174.040,166.968 174.399,167.263 174.397 C 167.558 174.396,167.260 174.037,166.600 173.600 C 165.040 172.567,164.395 172.567,165.709 173.600 M233.500 173.503 C 232.331 174.228,231.994 174.931,233.000 174.545 C 233.330 174.418,233.600 174.181,233.600 174.018 C 233.600 173.855,234.005 173.527,234.500 173.288 C 234.995 173.049,235.220 172.847,235.000 172.838 C 234.780 172.829,234.105 173.128,233.500 173.503 M124.000 174.400 C 124.507 174.840,125.013 175.200,125.123 175.200 C 125.234 175.200,124.998 174.840,124.600 174.400 C 124.202 173.960,123.696 173.600,123.477 173.600 C 123.257 173.600,123.493 173.960,124.000 174.400 M169.600 175.667 C 169.600 175.923,169.711 176.022,169.848 175.886 C 169.984 175.750,170.365 175.908,170.695 176.238 C 171.025 176.568,171.409 176.725,171.547 176.586 C 171.809 176.325,170.491 175.200,169.924 175.200 C 169.746 175.200,169.600 175.410,169.600 175.667 M229.100 175.632 C 228.019 176.261,228.270 176.842,229.400 176.327 C 229.950 176.077,230.400 175.720,230.400 175.536 C 230.400 175.096,229.965 175.128,229.100 175.632 M129.200 176.946 C 129.200 177.056,129.740 177.530,130.400 178.000 C 131.060 178.470,131.600 178.764,131.600 178.654 C 131.600 178.544,131.060 178.070,130.400 177.600 C 129.740 177.130,129.200 176.836,129.200 176.946 M133.203 179.603 C 133.712 180.044,134.234 180.299,134.364 180.170 C 134.628 179.905,133.256 178.800,132.662 178.800 C 132.451 178.800,132.694 179.161,133.203 179.603 M142.400 184.724 C 142.400 184.939,142.685 185.224,143.033 185.357 C 143.423 185.507,143.606 185.418,143.508 185.125 C 143.309 184.527,142.400 184.198,142.400 184.724 M311.504 185.318 C 310.681 185.803,310.006 186.338,310.004 186.506 C 310.002 186.674,310.720 186.335,311.600 185.753 C 312.480 185.170,313.200 184.628,313.200 184.547 C 313.200 184.328,313.125 184.362,311.504 185.318 M124.000 186.753 C 124.000 186.948,124.360 187.201,124.800 187.316 C 125.745 187.563,125.886 186.995,124.967 186.643 C 124.128 186.321,124.000 186.335,124.000 186.753 M274.812 186.784 C 274.488 186.989,274.327 187.261,274.454 187.388 C 274.769 187.703,276.000 187.201,276.000 186.757 C 276.000 186.301,275.560 186.311,274.812 186.784 M128.176 189.013 C 128.604 189.336,129.234 189.594,129.576 189.586 C 129.976 189.577,129.841 189.366,129.200 189.000 C 127.891 188.252,127.182 188.261,128.176 189.013 M270.800 189.033 C 270.177 189.379,270.035 189.590,270.424 189.594 C 270.766 189.597,271.396 189.336,271.824 189.013 C 272.794 188.278,272.137 188.292,270.800 189.033 M265.203 192.397 C 264.694 192.839,264.440 193.194,264.639 193.187 C 265.187 193.168,266.571 192.037,266.335 191.802 C 266.221 191.688,265.712 191.956,265.203 192.397 M83.371 193.409 C 83.795 193.729,84.240 193.894,84.359 193.774 C 84.610 193.523,83.594 192.809,83.000 192.819 C 82.780 192.822,82.947 193.088,83.371 193.409 M91.600 193.224 C 91.600 193.457,91.420 193.536,91.200 193.400 C 90.980 193.264,90.800 193.343,90.800 193.576 C 90.800 194.188,91.422 194.097,92.000 193.400 C 92.344 192.985,92.359 192.800,92.049 192.800 C 91.802 192.800,91.600 192.991,91.600 193.224 M286.667 193.067 C 286.212 193.522,286.349 242.400,286.806 242.400 C 287.076 242.400,287.206 234.109,287.194 217.600 C 287.184 203.960,287.122 192.800,287.055 192.800 C 286.988 192.800,286.813 192.920,286.667 193.067 M256.000 197.600 C 255.493 198.040,255.257 198.400,255.477 198.400 C 255.696 198.400,256.202 198.040,256.600 197.600 C 256.998 197.160,257.234 196.800,257.123 196.800 C 257.013 196.800,256.507 197.160,256.000 197.600 M152.000 241.800 C 152.797 242.760,154.039 243.367,153.769 242.663 C 153.652 242.358,153.086 241.894,152.511 241.632 C 151.569 241.203,151.518 241.220,152.000 241.800 M247.300 241.711 C 246.449 242.100,246.051 242.815,246.700 242.787 C 247.146 242.768,248.569 241.633,248.371 241.454 C 248.277 241.369,247.795 241.485,247.300 241.711 M160.400 246.344 C 160.400 246.524,160.850 246.877,161.400 247.127 C 161.950 247.378,162.400 247.436,162.400 247.256 C 162.400 247.076,161.950 246.723,161.400 246.473 C 160.850 246.222,160.400 246.164,160.400 246.344 M238.500 246.511 C 237.649 246.900,237.251 247.615,237.900 247.587 C 238.346 247.568,239.769 246.433,239.571 246.254 C 239.477 246.169,238.995 246.285,238.500 246.511 M108.662 251.764 C 106.275 254.246,104.167 256.530,103.976 256.839 C 103.785 257.147,103.443 257.400,103.215 257.400 C 102.987 257.400,102.845 257.526,102.900 257.681 C 103.073 258.167,99.889 261.179,99.473 260.922 C 99.251 260.784,99.202 260.879,99.362 261.138 C 99.532 261.413,99.390 261.600,99.011 261.600 C 98.661 261.600,98.224 262.005,98.041 262.500 C 97.858 262.995,97.594 263.355,97.454 263.300 C 97.314 263.245,97.189 263.335,97.176 263.500 C 97.129 264.075,95.481 265.574,95.132 265.358 C 94.938 265.238,94.830 265.379,94.890 265.670 C 94.951 265.962,94.770 266.153,94.489 266.096 C 94.208 266.039,93.868 266.309,93.734 266.696 C 93.345 267.817,88.305 272.786,87.830 272.516 C 87.594 272.382,87.538 272.424,87.707 272.610 C 88.109 273.052,85.594 275.644,85.075 275.323 C 84.856 275.187,84.792 275.264,84.934 275.493 C 85.164 275.866,84.078 277.145,83.739 276.900 C 83.662 276.845,83.645 276.881,83.700 276.981 C 83.912 277.363,80.649 280.354,80.273 280.122 C 80.055 279.987,79.987 280.055,80.122 280.273 C 80.379 280.689,77.367 283.873,76.881 283.700 C 76.726 283.645,76.597 283.735,76.594 283.900 C 76.580 284.560,75.919 285.197,75.511 284.945 C 75.237 284.776,75.193 284.865,75.390 285.184 C 75.690 285.670,112.277 249.628,113.239 247.900 C 114.090 246.369,112.806 247.454,108.662 251.764 M164.403 248.286 C 164.405 248.459,165.170 249.017,166.103 249.527 C 167.649 250.371,167.711 250.379,166.800 249.616 C 165.455 248.488,164.399 247.902,164.403 248.286 M170.000 251.586 C 170.000 251.798,170.348 252.158,170.774 252.386 C 172.005 253.045,172.201 252.868,171.200 252.000 C 170.156 251.095,170.000 251.041,170.000 251.586 M228.803 251.997 C 228.294 252.439,228.040 252.794,228.239 252.787 C 228.787 252.768,230.171 251.637,229.935 251.402 C 229.821 251.288,229.312 251.556,228.803 251.997 M178.800 256.242 C 178.800 256.573,180.077 257.570,180.524 257.587 C 180.702 257.594,180.737 257.421,180.601 257.202 C 180.280 256.682,178.800 255.893,178.800 256.242 M219.957 256.777 C 219.430 257.215,219.180 257.574,219.400 257.574 C 219.973 257.575,221.383 256.449,221.127 256.194 C 221.010 256.076,220.483 256.339,219.957 256.777 M184.200 259.600 C 184.598 260.040,185.104 260.400,185.323 260.400 C 185.543 260.400,185.307 260.040,184.800 259.600 C 184.293 259.160,183.787 258.800,183.677 258.800 C 183.566 258.800,183.802 259.160,184.200 259.600 M134.174 264.758 C 134.323 264.999,134.816 265.395,135.271 265.638 C 135.862 265.954,136.020 265.956,135.826 265.642 C 135.677 265.401,135.184 265.005,134.729 264.762 C 134.138 264.446,133.980 264.444,134.174 264.758 M264.600 265.200 C 263.853 265.695,263.641 265.996,264.038 265.997 C 264.389 265.999,265.002 265.640,265.400 265.200 C 266.310 264.194,266.119 264.194,264.600 265.200 M138.357 267.223 C 138.883 267.661,139.423 267.911,139.556 267.777 C 139.840 267.493,138.444 266.394,137.824 266.413 C 137.591 266.421,137.830 266.785,138.357 267.223 M261.100 266.832 C 260.019 267.461,260.270 268.042,261.400 267.527 C 261.950 267.277,262.400 266.920,262.400 266.736 C 262.400 266.296,261.965 266.328,261.100 266.832 M256.600 269.850 C 255.564 270.731,255.536 270.803,256.392 270.372 C 257.496 269.817,258.639 268.792,258.129 268.814 C 257.948 268.822,257.260 269.288,256.600 269.850 M156.400 276.946 C 156.400 277.056,156.940 277.530,157.600 278.000 C 158.260 278.470,158.800 278.764,158.800 278.654 C 158.800 278.544,158.260 278.070,157.600 277.600 C 156.940 277.130,156.400 276.836,156.400 276.946 M242.011 277.820 C 241.247 278.359,240.797 278.799,241.011 278.798 C 241.225 278.797,241.940 278.353,242.600 277.812 C 244.141 276.549,243.805 276.553,242.011 277.820 M161.046 279.775 C 161.278 280.380,162.400 280.967,162.400 280.484 C 162.400 280.323,162.047 279.972,161.615 279.702 C 160.968 279.298,160.868 279.311,161.046 279.775 M238.177 279.767 C 237.750 280.079,237.507 280.440,237.636 280.570 C 237.766 280.699,238.288 280.444,238.797 280.003 C 239.849 279.090,239.358 278.904,238.177 279.767 M165.578 282.554 C 167.096 283.707,167.200 283.752,167.200 283.264 C 167.200 283.080,166.705 282.680,166.100 282.377 C 164.235 281.442,164.150 281.471,165.578 282.554 M73.809 287.191 C 73.415 287.625,72.909 287.868,72.685 287.729 C 72.450 287.584,72.398 287.674,72.562 287.939 C 72.915 288.510,74.196 287.909,74.540 287.011 C 74.853 286.196,74.668 286.241,73.809 287.191 M251.600 292.200 C 254.123 294.730,256.277 296.800,256.387 296.800 C 256.497 296.800,254.523 294.730,252.000 292.200 C 249.477 289.670,247.323 287.600,247.213 287.600 C 247.103 287.600,249.077 289.670,251.600 292.200 M243.400 289.276 L 242.600 290.104 243.400 289.665 C 245.090 288.739,245.463 288.410,244.800 288.430 C 244.470 288.440,243.840 288.820,243.400 289.276 M179.600 290.154 C 179.600 290.239,180.057 290.607,180.615 290.973 C 181.607 291.623,181.619 291.619,181.119 290.819 C 180.689 290.130,179.600 289.653,179.600 290.154 M159.600 291.198 C 159.600 291.404,159.956 291.762,160.391 291.995 C 161.026 292.335,161.138 292.304,160.960 291.840 C 160.702 291.167,159.600 290.647,159.600 291.198 M152.000 293.000 C 151.028 293.990,150.323 294.800,150.433 294.800 C 150.543 294.800,151.428 293.990,152.400 293.000 C 153.372 292.010,154.077 291.200,153.967 291.200 C 153.857 291.200,152.972 292.010,152.000 293.000 M184.003 292.803 C 184.512 293.244,185.034 293.499,185.164 293.370 C 185.428 293.105,184.056 292.000,183.462 292.000 C 183.251 292.000,183.494 292.361,184.003 292.803 M215.100 292.703 C 213.789 293.516,213.612 294.236,214.892 293.551 C 215.944 292.988,216.999 291.995,216.529 292.011 C 216.348 292.016,215.705 292.328,215.100 292.703 M70.000 293.776 C 70.000 294.093,70.180 294.464,70.400 294.600 C 70.620 294.736,70.800 294.477,70.800 294.024 C 70.800 293.571,70.620 293.200,70.400 293.200 C 70.180 293.200,70.000 293.459,70.000 293.776 M211.149 295.065 C 210.647 295.674,210.685 295.687,211.600 295.211 C 212.941 294.514,213.042 294.400,212.316 294.400 C 211.976 294.400,211.451 294.699,211.149 295.065 M147.385 297.700 L 145.400 299.800 147.500 297.815 C 148.655 296.723,149.600 295.778,149.600 295.715 C 149.600 295.417,149.229 295.749,147.385 297.700 M169.869 296.835 C 170.127 297.146,170.937 297.741,171.669 298.157 L 173.000 298.914 172.175 298.111 C 171.095 297.060,169.174 295.997,169.869 296.835 M192.000 297.200 C 192.507 297.640,193.013 298.000,193.123 298.000 C 193.234 298.000,192.998 297.640,192.600 297.200 C 192.202 296.760,191.696 296.400,191.477 296.400 C 191.257 296.400,191.493 296.760,192.000 297.200 M228.403 297.597 C 227.894 298.039,227.640 298.394,227.839 298.387 C 228.387 298.368,229.771 297.237,229.535 297.002 C 229.421 296.888,228.912 297.156,228.403 297.597 M173.200 298.514 C 173.200 298.613,173.920 299.170,174.800 299.753 C 175.680 300.335,176.399 300.674,176.397 300.506 C 176.396 300.338,175.811 299.844,175.097 299.410 C 173.463 298.414,173.200 298.290,173.200 298.514 M225.104 299.318 C 224.281 299.803,223.606 300.338,223.604 300.506 C 223.602 300.674,224.320 300.335,225.200 299.753 C 226.080 299.170,226.800 298.628,226.800 298.547 C 226.800 298.328,226.725 298.362,225.104 299.318 M258.000 298.525 C 258.000 298.594,258.585 299.179,259.300 299.825 L 260.600 301.000 259.425 299.700 C 258.330 298.488,258.000 298.216,258.000 298.525 M73.635 300.991 C 74.558 301.976,75.650 302.889,76.062 303.020 C 76.475 303.151,76.723 303.401,76.615 303.575 C 76.507 303.750,76.775 304.215,77.209 304.609 C 77.644 305.002,78.000 305.182,78.000 305.008 C 78.000 304.834,78.401 305.211,78.891 305.846 C 80.105 307.417,80.886 308.200,81.238 308.200 C 81.677 308.200,82.197 308.802,82.218 309.333 C 82.228 309.590,82.442 309.759,82.694 309.708 C 82.945 309.658,83.264 309.973,83.403 310.408 C 83.541 310.844,83.880 311.200,84.157 311.200 C 84.667 311.200,86.684 313.123,86.500 313.432 C 86.445 313.525,86.511 313.578,86.648 313.552 C 87.172 313.451,99.943 326.570,99.714 326.974 C 99.581 327.208,99.625 327.260,99.813 327.090 C 100.000 326.919,101.154 327.724,102.377 328.878 C 103.600 330.033,97.481 323.827,88.780 315.089 C 80.079 306.350,72.734 299.200,72.458 299.200 C 72.182 299.200,72.711 300.006,73.635 300.991 M142.800 302.200 C 141.828 303.190,141.123 304.000,141.233 304.000 C 141.343 304.000,142.228 303.190,143.200 302.200 C 144.172 301.210,144.877 300.400,144.767 300.400 C 144.657 300.400,143.772 301.210,142.800 302.200 M177.600 301.126 C 177.600 301.431,179.708 302.800,180.177 302.800 C 180.317 302.800,180.199 302.549,179.916 302.242 C 179.632 301.935,179.265 301.766,179.100 301.866 C 178.935 301.965,178.800 301.876,178.800 301.666 C 178.800 301.457,178.530 301.182,178.200 301.055 C 177.870 300.929,177.600 300.961,177.600 301.126 M220.400 302.000 C 219.213 303.030,219.845 303.030,221.400 302.000 C 222.149 301.504,222.360 301.204,221.961 301.203 C 221.610 301.201,220.907 301.560,220.400 302.000 M263.400 304.000 C 264.259 304.880,265.052 305.600,265.162 305.600 C 265.272 305.600,264.659 304.880,263.800 304.000 C 262.941 303.120,262.148 302.400,262.038 302.400 C 261.928 302.400,262.541 303.120,263.400 304.000 M138.400 306.600 C 137.428 307.590,136.723 308.400,136.833 308.400 C 136.943 308.400,137.828 307.590,138.800 306.600 C 139.772 305.610,140.477 304.800,140.367 304.800 C 140.257 304.800,139.372 305.610,138.400 306.600 M268.000 308.600 C 268.746 309.370,269.447 310.000,269.557 310.000 C 269.667 310.000,269.146 309.370,268.400 308.600 C 267.654 307.830,266.953 307.200,266.843 307.200 C 266.733 307.200,267.254 307.830,268.000 308.600 M133.600 311.400 C 132.628 312.390,131.923 313.200,132.033 313.200 C 132.143 313.200,133.028 312.390,134.000 311.400 C 134.972 310.410,135.677 309.600,135.567 309.600 C 135.457 309.600,134.572 310.410,133.600 311.400 M193.784 310.383 C 194.591 311.274,195.200 311.443,195.200 310.776 C 195.200 310.543,195.020 310.464,194.800 310.600 C 194.580 310.736,194.400 310.676,194.400 310.466 C 194.400 310.257,194.095 309.969,193.722 309.826 C 193.129 309.598,193.136 309.667,193.784 310.383 M205.876 310.181 C 205.557 310.500,205.184 310.650,205.048 310.514 C 204.911 310.378,204.800 310.477,204.800 310.733 C 204.800 311.436,205.389 311.296,206.200 310.400 C 207.028 309.485,206.756 309.301,205.876 310.181 M196.400 311.500 C 196.400 311.680,196.985 312.170,197.700 312.588 C 198.850 313.261,198.935 313.269,198.433 312.653 C 197.745 311.808,196.400 311.045,196.400 311.500 M202.162 312.245 L 201.000 313.291 202.300 312.559 C 203.015 312.157,203.600 311.686,203.600 311.514 C 203.600 311.026,203.410 311.123,202.162 312.245 M271.600 312.125 C 271.600 312.194,272.185 312.779,272.900 313.425 L 274.200 314.600 273.025 313.300 C 271.930 312.088,271.600 311.816,271.600 312.125 M129.200 315.800 C 128.228 316.790,127.523 317.600,127.633 317.600 C 127.743 317.600,128.628 316.790,129.600 315.800 C 130.572 314.810,131.277 314.000,131.167 314.000 C 131.057 314.000,130.172 314.810,129.200 315.800 M276.825 317.431 C 277.581 318.328,278.281 318.997,278.380 318.917 C 278.479 318.838,277.860 318.104,277.005 317.287 L 275.450 315.800 276.825 317.431 M124.800 320.200 C 123.828 321.190,123.123 322.000,123.233 322.000 C 123.343 322.000,124.228 321.190,125.200 320.200 C 126.172 319.210,126.877 318.400,126.767 318.400 C 126.657 318.400,125.772 319.210,124.800 320.200 M120.000 325.000 C 119.028 325.990,118.323 326.800,118.433 326.800 C 118.543 326.800,119.428 325.990,120.400 325.000 C 121.372 324.010,122.077 323.200,121.967 323.200 C 121.857 323.200,120.972 324.010,120.000 325.000 M115.781 329.300 L 114.200 331.000 115.900 329.419 C 116.835 328.549,117.600 327.784,117.600 327.719 C 117.600 327.416,117.252 327.719,115.781 329.300 M105.200 332.067 C 105.200 332.323,105.318 332.415,105.463 332.270 C 105.608 332.125,105.968 332.207,106.263 332.452 C 106.601 332.733,106.800 332.747,106.800 332.492 C 106.800 332.268,106.515 331.976,106.167 331.843 C 105.297 331.509,105.200 331.532,105.200 332.067 " stroke="none" fill="#0764cf" fill-rule="evenodd"></path><path id="path4" d="M100.581 78.100 L 99.000 79.800 100.700 78.219 C 101.635 77.349,102.400 76.584,102.400 76.519 C 102.400 76.216,102.052 76.519,100.581 78.100 M233.851 79.231 C 233.270 79.688,232.604 80.453,232.371 80.931 C 231.991 81.709,232.027 81.700,232.717 80.844 C 233.141 80.318,233.918 79.557,234.444 79.153 C 234.970 78.749,235.289 78.414,235.154 78.409 C 235.019 78.404,234.432 78.774,233.851 79.231 M95.978 82.700 L 94.600 84.200 96.100 82.822 C 97.496 81.538,97.784 81.200,97.478 81.200 C 97.412 81.200,96.737 81.875,95.978 82.700 M89.200 89.400 C 88.228 90.390,87.523 91.200,87.633 91.200 C 87.743 91.200,88.628 90.390,89.600 89.400 C 90.572 88.410,91.277 87.600,91.167 87.600 C 91.057 87.600,90.172 88.410,89.200 89.400 M86.210 91.943 C 86.325 92.058,85.560 93.063,84.510 94.176 L 82.600 96.200 84.900 94.014 C 87.540 91.504,87.369 91.733,86.600 91.733 C 86.270 91.733,86.094 91.828,86.210 91.943 M80.400 98.200 C 79.428 99.190,78.723 100.000,78.833 100.000 C 78.943 100.000,79.828 99.190,80.800 98.200 C 81.772 97.210,82.477 96.400,82.367 96.400 C 82.257 96.400,81.372 97.210,80.400 98.200 M75.381 103.300 L 73.800 105.000 75.500 103.419 C 76.435 102.549,77.200 101.784,77.200 101.719 C 77.200 101.416,76.852 101.719,75.381 103.300 M291.200 142.905 C 291.750 143.450,292.263 143.841,292.340 143.775 C 292.609 143.542,291.949 142.801,291.078 142.359 C 290.276 141.952,290.286 141.999,291.200 142.905 M295.378 147.093 C 296.906 148.679,298.239 149.894,298.341 149.792 C 298.443 149.690,297.913 149.039,297.163 148.345 C 293.373 144.837,292.858 144.476,295.378 147.093 M57.978 168.536 C 59.417 170.064,59.600 170.195,59.600 169.700 C 59.600 169.535,58.925 168.876,58.100 168.236 L 56.600 167.072 57.978 168.536 M101.121 259.249 C 99.868 260.542,98.974 261.600,99.134 261.600 C 99.294 261.600,100.494 260.520,101.800 259.200 C 103.106 257.880,104.001 256.822,103.787 256.849 C 103.574 256.876,102.375 257.956,101.121 259.249 M96.000 264.497 C 93.556 267.095,93.590 267.222,96.088 264.821 C 97.229 263.725,98.080 262.773,97.981 262.706 C 97.881 262.638,96.990 263.444,96.000 264.497 M90.616 269.671 C 89.084 271.153,87.924 272.458,88.038 272.571 C 88.151 272.685,89.484 271.528,91.000 270.000 C 94.561 266.412,94.255 266.151,90.616 269.671 M81.632 278.866 C 78.497 281.983,75.641 284.998,75.287 285.566 C 74.932 286.135,74.723 286.509,74.821 286.398 C 74.919 286.287,77.873 283.272,81.384 279.698 C 84.895 276.124,87.669 273.200,87.550 273.200 C 87.430 273.200,84.767 275.750,81.632 278.866 M76.469 303.664 C 77.057 304.179,78.021 305.140,78.611 305.800 C 79.345 306.622,79.279 306.462,78.403 305.293 C 77.698 304.354,76.735 303.393,76.261 303.158 C 75.586 302.821,75.631 302.931,76.469 303.664 M81.200 308.096 C 81.200 308.217,81.768 308.919,82.462 309.658 C 83.156 310.396,83.533 310.638,83.299 310.196 C 82.861 309.366,81.200 307.705,81.200 308.096 M87.892 315.145 C 90.041 317.315,92.520 319.687,93.400 320.416 C 94.280 321.146,92.663 319.371,89.806 316.471 C 86.949 313.572,84.470 311.200,84.298 311.200 C 84.125 311.200,85.742 312.975,87.892 315.145 M97.193 324.347 C 98.148 325.256,99.025 326.000,99.140 326.000 C 99.506 326.000,97.034 323.549,96.228 323.113 C 95.803 322.883,96.237 323.438,97.193 324.347 M119.978 325.500 L 118.600 327.000 120.100 325.622 C 121.496 324.338,121.784 324.000,121.478 324.000 C 121.412 324.000,120.737 324.675,119.978 325.500 M115.978 329.500 L 114.600 331.000 116.100 329.622 C 117.496 328.338,117.784 328.000,117.478 328.000 C 117.412 328.000,116.737 328.675,115.978 329.500 " stroke="none" fill="#146cd4" fill-rule="evenodd"></path><path id="path5" d="" stroke="none" fill="#1c6cd4" fill-rule="evenodd"></path><path id="path6" d="" stroke="none" fill="#085ccc" fill-rule="evenodd"></path><path id="path7" d="" stroke="none" fill="#085cd8" fill-rule="evenodd"></path><path id="path8" d="" stroke="none" fill="#0c5ccc" fill-rule="evenodd"></path></g></svg>